<svg width="25" height="24" viewBox="0 0 25 24" fill="none" xmlns="http://www.w3.org/2000/svg">
<path fill-rule="evenodd" clip-rule="evenodd" d="M15.8132 15.6631C15.9525 15.5237 16.1179 15.413 16.3 15.3375C16.4821 15.2621 16.6773 15.2232 16.8744 15.2232C17.0715 15.2232 17.2667 15.2621 17.4488 15.3375C17.6309 15.413 17.7963 15.5237 17.9357 15.6631L23.7106 21.4381C23.992 21.7193 24.1502 22.1009 24.1504 22.4988C24.1505 22.8967 23.9926 23.2783 23.7113 23.5598C23.4301 23.8412 23.0485 23.9994 22.6506 23.9996C22.2527 23.9997 21.8711 23.8418 21.5896 23.5605L15.8147 17.7856C15.6752 17.6463 15.5646 17.4809 15.4891 17.2988C15.4136 17.1167 15.3748 16.9215 15.3748 16.7244C15.3748 16.5272 15.4136 16.3321 15.4891 16.15C15.5646 15.9679 15.6752 15.8024 15.8147 15.6631H15.8132Z" fill="#000"/>
<path fill-rule="evenodd" clip-rule="evenodd" d="M9.90028 18.0002C10.9837 18.0002 12.0565 17.7868 13.0574 17.3722C14.0583 16.9576 14.9678 16.3499 15.7338 15.5838C16.4999 14.8177 17.1076 13.9083 17.5222 12.9074C17.9368 11.9064 18.1502 10.8336 18.1502 9.75025C18.1502 8.66686 17.9368 7.59407 17.5222 6.59315C17.1076 5.59223 16.4999 4.68276 15.7338 3.91669C14.9678 3.15061 14.0583 2.54293 13.0574 2.12834C12.0565 1.71374 10.9837 1.50035 9.90028 1.50035C7.71227 1.50035 5.61387 2.36953 4.06671 3.91669C2.51956 5.46385 1.65037 7.56224 1.65037 9.75025C1.65037 11.9383 2.51956 14.0367 4.06671 15.5838C5.61387 17.131 7.71227 18.0002 9.90028 18.0002V18.0002ZM19.6502 9.75025C19.6502 12.3361 18.6229 14.816 16.7945 16.6445C14.966 18.4729 12.4861 19.5001 9.90028 19.5001C7.31445 19.5001 4.83452 18.4729 3.00607 16.6445C1.17761 14.816 0.150391 12.3361 0.150391 9.75025C0.150391 7.16442 1.17761 4.6845 3.00607 2.85604C4.83452 1.02758 7.31445 0.000366211 9.90028 0.000366211C12.4861 0.000366211 14.966 1.02758 16.7945 2.85604C18.6229 4.6845 19.6502 7.16442 19.6502 9.75025V9.75025Z" fill="black"/>
</svg>
