<svg width="245" height="61" viewBox="0 0 245 61" fill="none" xmlns="http://www.w3.org/2000/svg">
<path d="M1.51594 31.8126C-0.4096 28.3803 1.7614 24.9954 7.55136 22.4025C13.3413 19.8095 22.2759 18.221 32.3898 17.9863C42.5036 17.7516 52.9681 18.89 61.4813 21.1511C69.9945 23.4121 75.859 26.6106 77.7847 30.0429L71.2256 30.1951C69.6311 27.3532 64.7753 24.7048 57.7264 22.8327C50.6775 20.9605 42.0128 20.0179 33.6386 20.2122C25.2643 20.4066 17.8665 21.7219 13.0724 23.8688C8.27831 26.0158 6.48072 28.8185 8.07507 31.6605L1.51594 31.8126Z" fill="#00E0FF"/>
<path d="M60.232 39.3417C65.4106 27.4538 60.4996 13.5632 49.1373 8.36607C37.7749 3.16889 24.4045 8.69758 19.226 20.5855C14.0474 32.4733 18.9583 46.3639 30.3207 51.5611C41.6831 56.7583 55.0534 51.2296 60.232 39.3417Z" fill="#FF0000" stroke="black" stroke-width="2"/>
<path d="M18.4254 34.7926C18.4254 34.7926 36.2358 25.1195 47.7133 51.023" stroke="#0B0B0B" stroke-width="1.5"/>
<path d="M29.003 10.5103C29.003 10.5103 33.7781 30.8062 60.4109 21.9958" stroke="#0B0B0B" stroke-width="1.5"/>
<path d="M19.9145 20.7139L59.7016 38.9126M31.5187 51.3424C28.6252 30.3732 32.3857 21.4479 49.9657 9.64972" stroke="#0B0B0B" stroke-width="1.5"/>
<path d="M77.475 31.5807C78.5323 34.9745 75.5631 38.3716 69.2207 41.0244C62.8783 43.6773 53.6821 45.3688 43.6552 45.7267C33.6283 46.0845 23.592 45.0796 15.7542 42.9328C7.91646 40.7861 2.91918 37.6734 1.86175 34.2796L8.36449 34.0475C9.24004 36.8576 13.3778 39.4349 19.8675 41.2124C26.3571 42.9899 34.6672 43.822 42.9694 43.5256C51.2717 43.2293 58.8862 41.8288 64.1377 39.6322C69.3892 37.4356 71.8477 34.6229 70.9722 31.8128L77.475 31.5807Z" fill="#FFC700"/>
<g filter="url(#filter0_d_69_3)">
<path d="M91.4711 19.174V28.645C91.4711 28.997 91.5481 29.25 91.7021 29.404C91.8781 29.558 92.2521 29.635 92.8241 29.635H95.2661V32.77H91.0751C89.8211 32.77 88.8091 32.638 88.0391 32.374C87.2911 32.11 86.7301 31.648 86.3561 30.988C86.0041 30.306 85.7731 29.58 85.6631 28.81C85.5751 28.04 85.5311 27.006 85.5311 25.708C85.5311 24.388 85.5751 23.387 85.6631 22.705C85.7731 22.023 86.0041 21.385 86.3561 20.791C86.7301 20.197 87.2911 19.779 88.0391 19.537C88.8091 19.295 89.8211 19.174 91.0751 19.174H91.4711ZM96.5861 29.635H96.9821C97.9281 29.635 98.6541 29.657 99.1601 29.701C99.6881 29.723 100.194 29.822 100.678 29.998C101.162 30.152 101.492 30.339 101.668 30.559C101.866 30.779 102.042 31.164 102.196 31.714C102.372 32.242 102.471 32.814 102.493 33.43C102.515 34.046 102.526 34.926 102.526 36.07C102.526 37.214 102.515 38.127 102.493 38.809C102.471 39.469 102.372 40.107 102.196 40.723C102.042 41.317 101.866 41.735 101.668 41.977C101.492 42.219 101.162 42.439 100.678 42.637C100.194 42.813 99.6881 42.923 99.1601 42.967C98.6541 42.989 97.9281 43 96.9821 43H96.5861V29.635ZM85.9931 35.641H90.1511C90.4591 35.641 90.6461 35.685 90.7121 35.773C90.7781 35.861 90.8111 36.048 90.8111 36.334V38.908C90.8111 39.26 90.8551 39.513 90.9431 39.667C91.0531 39.799 91.3061 39.865 91.7021 39.865H95.2661V43H90.4151C88.8091 43 87.5881 42.725 86.7521 42.175C85.9381 41.625 85.5311 40.668 85.5311 39.304V36.334C85.5311 35.872 85.6851 35.641 85.9931 35.641ZM92.7911 19.141H96.9821C98.5881 19.141 99.7981 19.416 100.612 19.966C101.448 20.516 101.866 21.473 101.866 22.837V25.807C101.866 26.269 101.712 26.5 101.404 26.5H97.2461C96.9381 26.5 96.7511 26.456 96.6851 26.368C96.6191 26.28 96.5861 26.093 96.5861 25.807V23.233C96.5861 22.881 96.5311 22.639 96.4211 22.507C96.3331 22.353 96.0911 22.276 95.6951 22.276H92.7911V19.141ZM104.94 19.141H115.269C115.621 19.141 115.907 19.262 116.127 19.504C116.347 19.746 116.457 20.065 116.457 20.461V43H112.992C112.244 43 111.749 42.879 111.507 42.637C111.287 42.395 111.177 41.889 111.177 41.119V23.266H105.897C105.259 23.266 104.94 22.738 104.94 21.682V19.141ZM117.777 19.141H123.057C123.695 19.141 124.014 19.669 124.014 20.725V23.266H117.777V19.141ZM135.509 22.276H132.44C132.088 22.276 131.912 22.364 131.912 22.54V43H128.447C127.699 43 127.204 42.879 126.962 42.637C126.742 42.395 126.632 41.889 126.632 41.119V21.022C126.632 20.252 126.742 19.746 126.962 19.504C127.204 19.262 127.699 19.141 128.447 19.141H135.509V22.276ZM136.829 19.141H140.294C141.042 19.141 141.526 19.262 141.746 19.504C141.988 19.746 142.109 20.252 142.109 21.022V41.086C142.109 41.856 141.988 42.373 141.746 42.637C141.504 42.879 141.02 43 140.294 43H136.829V31.945H133.232V28.81H136.829V19.141ZM152.085 43H148.62C147.872 43 147.377 42.879 147.135 42.637C146.915 42.395 146.805 41.889 146.805 41.119V20.461C146.805 20.065 146.915 19.746 147.135 19.504C147.355 19.262 147.641 19.141 147.993 19.141H152.085V43ZM153.405 19.141H157.596C158.872 19.141 159.873 19.24 160.599 19.438C161.347 19.636 161.908 20.032 162.282 20.626C162.656 21.198 162.887 21.847 162.975 22.573C163.085 23.277 163.14 24.278 163.14 25.576C163.14 26.874 163.085 27.864 162.975 28.546C162.887 29.228 162.656 29.866 162.282 30.46C161.93 31.054 161.369 31.472 160.599 31.714C159.851 31.956 158.85 32.077 157.596 32.077H153.405V28.942H155.847C156.419 28.942 156.782 28.865 156.936 28.711C157.112 28.557 157.2 28.315 157.2 27.985V23.266C157.2 22.914 157.112 22.661 156.936 22.507C156.782 22.353 156.419 22.276 155.847 22.276H153.405V19.141ZM156.573 33.1H160.665C161.325 33.1 161.798 33.287 162.084 33.661C162.37 34.013 162.513 34.596 162.513 35.41V43H157.761C157.409 43 157.123 42.879 156.903 42.637C156.683 42.395 156.573 42.076 156.573 41.68V33.1ZM172.682 19.174V28.645C172.682 28.997 172.759 29.25 172.913 29.404C173.089 29.558 173.463 29.635 174.035 29.635H176.477V32.77H172.286C171.032 32.77 170.02 32.638 169.25 32.374C168.502 32.11 167.941 31.648 167.567 30.988C167.215 30.306 166.984 29.58 166.874 28.81C166.786 28.04 166.742 27.006 166.742 25.708C166.742 24.388 166.786 23.387 166.874 22.705C166.984 22.023 167.215 21.385 167.567 20.791C167.941 20.197 168.502 19.779 169.25 19.537C170.02 19.295 171.032 19.174 172.286 19.174H172.682ZM177.797 29.635H178.193C179.139 29.635 179.865 29.657 180.371 29.701C180.899 29.723 181.405 29.822 181.889 29.998C182.373 30.152 182.703 30.339 182.879 30.559C183.077 30.779 183.253 31.164 183.407 31.714C183.583 32.242 183.682 32.814 183.704 33.43C183.726 34.046 183.737 34.926 183.737 36.07C183.737 37.214 183.726 38.127 183.704 38.809C183.682 39.469 183.583 40.107 183.407 40.723C183.253 41.317 183.077 41.735 182.879 41.977C182.703 42.219 182.373 42.439 181.889 42.637C181.405 42.813 180.899 42.923 180.371 42.967C179.865 42.989 179.139 43 178.193 43H177.797V29.635ZM167.204 35.641H171.362C171.67 35.641 171.857 35.685 171.923 35.773C171.989 35.861 172.022 36.048 172.022 36.334V38.908C172.022 39.26 172.066 39.513 172.154 39.667C172.264 39.799 172.517 39.865 172.913 39.865H176.477V43H171.626C170.02 43 168.799 42.725 167.963 42.175C167.149 41.625 166.742 40.668 166.742 39.304V36.334C166.742 35.872 166.896 35.641 167.204 35.641ZM174.002 19.141H178.193C179.799 19.141 181.009 19.416 181.823 19.966C182.659 20.516 183.077 21.473 183.077 22.837V25.807C183.077 26.269 182.923 26.5 182.615 26.5H178.457C178.149 26.5 177.962 26.456 177.896 26.368C177.83 26.28 177.797 26.093 177.797 25.807V23.233C177.797 22.881 177.742 22.639 177.632 22.507C177.544 22.353 177.302 22.276 176.906 22.276H174.002V19.141ZM195.783 42.736C195.783 42.868 195.717 42.956 195.585 43H193.077C191.471 43 190.305 42.681 189.579 42.043C188.853 41.405 188.49 40.283 188.49 38.677V29.041H186.807C186.257 29.041 185.982 28.711 185.982 28.051V26.5H188.49V19.141H190.503C191.471 19.141 192.197 19.383 192.681 19.867C193.187 20.351 193.44 20.967 193.44 21.715V39.271C193.44 40.085 193.902 40.492 194.826 40.492H195.519C195.695 40.492 195.783 40.569 195.783 40.723V42.736ZM196.806 26.5V28.051C196.806 28.711 196.531 29.041 195.981 29.041H194.265V26.5H196.806ZM204.844 26.5H208.045C208.881 26.5 209.563 26.544 210.091 26.632C210.619 26.698 211.081 26.863 211.477 27.127C211.873 27.391 212.17 27.688 212.368 28.018C212.566 28.326 212.72 28.832 212.83 29.536C213.006 30.526 213.094 31.912 213.094 33.694C213.094 35.476 213.083 36.686 213.061 37.324C213.039 37.94 212.995 38.6 212.929 39.304C212.885 40.008 212.786 40.525 212.632 40.855C212.5 41.185 212.313 41.526 212.071 41.878C211.851 42.208 211.554 42.439 211.18 42.571C210.366 42.857 209.321 43 208.045 43H207.979V30.559C207.979 30.515 207.979 30.383 207.979 30.163C207.979 29.943 207.968 29.756 207.946 29.602C207.836 29.184 207.396 28.975 206.626 28.975H204.844V26.5ZM203.854 26.5V38.941C203.854 38.985 203.854 39.117 203.854 39.337C203.854 39.557 203.876 39.744 203.92 39.898C204.008 40.316 204.437 40.525 205.207 40.525H206.989V43H203.788C202.952 43 202.27 42.967 201.742 42.901C201.214 42.813 200.752 42.637 200.356 42.373C199.96 42.109 199.663 41.823 199.465 41.515C199.267 41.185 199.102 40.668 198.97 39.964C198.816 38.974 198.739 37.588 198.739 35.806C198.739 34.024 198.75 32.825 198.772 32.209C198.794 31.571 198.827 30.9 198.871 30.196C198.937 29.492 199.036 28.975 199.168 28.645C199.322 28.315 199.509 27.985 199.729 27.655C199.971 27.303 200.279 27.061 200.653 26.929C201.467 26.643 202.512 26.5 203.788 26.5H203.854ZM220.226 26.5H224.186C224.318 26.5 224.384 26.577 224.384 26.731V28.744C224.384 28.898 224.296 28.975 224.12 28.975H222.635C222.107 28.975 221.799 29.074 221.711 29.272C221.623 29.558 221.579 29.877 221.579 30.229V40.459C221.579 41.207 221.326 41.823 220.82 42.307C220.336 42.769 219.61 43 218.642 43H216.629V30.163C216.629 28.865 216.915 27.93 217.487 27.358C218.081 26.786 218.994 26.5 220.226 26.5ZM231.795 43H231.729C229.551 43 228.209 42.626 227.703 41.878C227.461 41.526 227.263 41.185 227.109 40.855C226.977 40.525 226.889 40.008 226.845 39.304C226.735 38.028 226.68 36.609 226.68 35.047C226.68 33.485 226.691 32.363 226.713 31.681C226.735 30.977 226.801 30.273 226.911 29.569C227.043 28.843 227.208 28.326 227.406 28.018C227.604 27.688 227.901 27.391 228.297 27.127C228.693 26.863 229.155 26.698 229.683 26.632C230.211 26.544 230.893 26.5 231.729 26.5H231.795V43ZM240.573 37.786V39.469C240.573 41.823 239.374 43 236.976 43H232.818V40.525H234.6C235.062 40.525 235.348 40.459 235.458 40.327C235.568 40.173 235.623 39.909 235.623 39.535V38.479C235.623 38.149 235.656 37.962 235.722 37.918C235.81 37.874 235.865 37.852 235.887 37.852C235.909 37.83 235.964 37.819 236.052 37.819C236.162 37.797 236.239 37.786 236.283 37.786C237.713 37.786 239.143 37.786 240.573 37.786ZM232.818 26.5H236.646C238.164 26.5 239.198 26.797 239.748 27.391C240.298 27.985 240.573 28.865 240.573 30.031V32.935C240.573 34.915 239.495 35.905 237.339 35.905H232.488V33.43H234.27C234.798 33.43 235.15 33.364 235.326 33.232C235.524 33.1 235.623 32.847 235.623 32.473V29.965C235.623 29.591 235.568 29.338 235.458 29.206C235.348 29.052 235.062 28.975 234.6 28.975H232.818V26.5Z" fill="white"/>
</g>
<defs>
<filter id="filter0_d_69_3" x="85.531" y="19.1411" width="155.042" height="25.8589" filterUnits="userSpaceOnUse" color-interpolation-filters="sRGB">
<feFlood flood-opacity="0" result="BackgroundImageFix"/>
<feColorMatrix in="SourceAlpha" type="matrix" values="0 0 0 0 0 0 0 0 0 0 0 0 0 0 0 0 0 0 127 0" result="hardAlpha"/>
<feOffset dy="2"/>
<feComposite in2="hardAlpha" operator="out"/>
<feColorMatrix type="matrix" values="0 0 0 0 0 0 0 0 0 0 0 0 0 0 0 0 0 0 0.37 0"/>
<feBlend mode="normal" in2="BackgroundImageFix" result="effect1_dropShadow_69_3"/>
<feBlend mode="normal" in="SourceGraphic" in2="effect1_dropShadow_69_3" result="shape"/>
</filter>
</defs>
</svg>
