<svg width="28" height="21" viewBox="0 0 28 21" fill="none" xmlns="http://www.w3.org/2000/svg">
<path d="M0.793443 10.9985C0.135542 9.81207 0.877309 8.64201 2.85556 7.74572C4.83382 6.84943 7.88652 6.30033 11.3421 6.21921C14.7977 6.13809 18.3731 6.53159 21.2818 7.31316C24.1905 8.09472 26.1943 9.20033 26.8522 10.3868L24.6112 10.4394C24.0664 9.45701 22.4073 8.54157 19.9989 7.89443C17.5905 7.2473 14.63 6.92147 11.7688 6.98864C8.90757 7.05581 6.37993 7.51047 4.74194 8.2526C3.10394 8.99472 2.48976 9.96353 3.0345 10.9459L0.793443 10.9985Z" fill="#0038FF"/>
<path d="M21.3151 14.2C23.149 9.94088 21.3159 4.90643 17.1549 2.98092C12.9939 1.05541 8.15471 3.00225 6.32079 7.2614C4.48686 11.5206 6.31999 16.555 10.481 18.4805C14.642 20.406 19.4812 18.4592 21.3151 14.2Z" fill="#FF0000" stroke="black" stroke-width="2"/>
<path d="M6.70502 12.2536C6.70502 12.2536 12.6314 9.10977 16.5651 17.7525" stroke="#0B0B0B" stroke-width="1.5"/>
<path d="M10.1591 4.23238C10.1591 4.23238 11.8296 10.9881 20.7118 8.16412" stroke="#0B0B0B" stroke-width="1.5"/>
<path d="M7.15343 7.58522L20.5344 13.7773M11.1463 17.7969C10.1032 10.8248 11.33 7.87608 17.1717 4.02594" stroke="#0B0B0B" stroke-width="1.5"/>
<path d="M26.7468 10.9184C27.108 12.0916 26.0935 13.2658 23.9265 14.1828C21.7595 15.0998 18.6174 15.6845 15.1915 15.8082C11.7656 15.9319 8.33655 15.5845 5.65861 14.8425C2.98068 14.1004 1.27326 13.0245 0.911965 11.8514L3.13376 11.7711C3.43291 12.7425 4.84665 13.6334 7.06398 14.2478C9.28131 14.8622 12.1206 15.1498 14.9572 15.0474C17.7939 14.945 20.3955 14.4609 22.1898 13.7016C23.9841 12.9423 24.8241 11.97 24.525 10.9987L26.7468 10.9184Z" fill="#0038FF"/>
</svg>
